# xmcd
#
# Track frame offsets: 
#        150
#        7243
#        21019
#        30577
#        59484
#        80877
#        103032
#        125100
#        143322
#        156960
#        171750
#
# Disc length: 2736 seconds
#
# Revision: 0
# Processed by: cddbd v1.5.1PL0 Copyright (c) Steve Scherf et al.
# Submitted via: ExactAudioCopy v0.95a4
#
DISCID=910aae0b
DTITLE=Trygve Vold and Endre Gustavsen - Moody Moses
DYEAR=2003
DGENRE=blues
TTITLE0=Intro (pling)
TTITLE1=Spirit Down
TTITLE2=Jack of Diamonds
TTITLE3=Face to Face
TTITLE4=Moody Moses
TTITLE5=Somekind of Wonderful
TTITLE6=Nobody Knows
TTITLE7=Driftin'
TTITLE8=Why Ask?
TTITLE9=You Gonna Need
TTITLE10=Min båt
EXTD=
EXTT0=
EXTT1=
EXTT2=
EXTT3=
EXTT4=
EXTT5=
EXTT6=
EXTT7=
EXTT8=
EXTT9=
EXTT10=
PLAYORDER=
